<?xml version="1.0" encoding="utf-8"?>
<!-- Generator: Adobe Illustrator 16.0.0, SVG Export Plug-In . SVG Version: 6.00 Build 0)  -->
<!DOCTYPE svg PUBLIC "-//W3C//DTD SVG 1.1//EN" "http://www.w3.org/Graphics/SVG/1.1/DTD/svg11.dtd">
<svg version="1.1" id="Layer_1" xmlns="http://www.w3.org/2000/svg" xmlns:xlink="http://www.w3.org/1999/xlink" x="0px" y="0px"
	 width="300px" height="200px" viewBox="0 0 300 200" enable-background="new 0 0 300 200" xml:space="preserve">
<circle fill="#44C2C1" cx="150.302" cy="98.671" r="73.662"/>
<path fill="none" stroke="#FFFFFF" stroke-width="5" stroke-linecap="round" stroke-miterlimit="10" d="M134.336,80.591
	c9.641,55.819-27.134,63.561-33.699,32.065c-6.922-33.213,10.219-50.616,21.255-58.206c34.208-23.525,51.798,7.653,44.493,24.443
	c-8.307,19.089-33.253,27.85-40.485,25.829c-4.557-1.272-4.159-6.61,1.825-6.693c8.212-0.112,15.045,18.082,27.266,19.051
	c29.183,2.315,45.209-42.007,43.01-48.331c-4-11.5-12.249,4.533-12.888,31.947c-0.303,12.957-1.612,58.553-34.787,55.097
	c-16.104-1.678-19.109-35.972,21.19-25.401c9.124,2.394,23.617,3.958,30.097-5.467"/>
</svg>
